<?xml version="1.0" encoding="utf-8"?>
<!-- Generator: Adobe Illustrator 15.0.0, SVG Export Plug-In  -->
<!DOCTYPE svg PUBLIC "-//W3C//DTD SVG 1.1//EN" "http://www.w3.org/Graphics/SVG/1.1/DTD/svg11.dtd" [
	<!ENTITY ns_flows "http://ns.adobe.com/Flows/1.0/">
]>
<svg version="1.1"
	 xmlns="http://www.w3.org/2000/svg" xmlns:xlink="http://www.w3.org/1999/xlink" xmlns:a="http://ns.adobe.com/AdobeSVGViewerExtensions/3.0/"
	 x="0px" y="0px" width="128px" height="128px" viewBox="-8 0 128 128" overflow="visible" enable-background="new -8 0 128 128"
	 xml:space="preserve">
<defs>
</defs>
<path fill="#546E7A" d="M108,16c-2.211,0-4-1.789-4-4s1.789-4,4-4s4-1.789,4-4s-1.789-4-4-4H12C5.375,0,0,5.371,0,12v108
	c0,4.418,3.578,8,8,8h96c4.422,0,8-3.582,8-8V20C112,17.789,110.211,16,108,16z M104,120H8V23.266C9.258,23.711,10.594,24,12,24h20
	v-8H12c-2.203,0-4-1.793-4-4s1.797-4,4-4h84.734C96.289,9.258,96,10.59,96,12s0.289,2.742,0.734,4H48v8h56V120z"/>
<path fill="#F44336" d="M48,8v36.688l-8-8.002l-8,8.002V8H48 M56,0H24v64l16-16l16,16V0L56,0z"/>
</svg>
